<?xml version="1.0" encoding="UTF-8"?>
<svg version="1.0" viewBox="0 0 78.5 90.980118" xmlns="http://www.w3.org/2000/svg">
 <defs>
  <linearGradient id="c" x1="205.94" x2="208.38" y1="33.594" y2="27.594" gradientUnits="userSpaceOnUse">
   <stop stop-color="#57b511" offset="0"/>
   <stop stop-color="#0fa41f" offset="1"/>
  </linearGradient>
  <linearGradient id="d" x1="169.5" x2="243" y1="61.75" y2="61.75" gradientUnits="userSpaceOnUse">
   <stop stop-color="#ee1a1a" offset="0"/>
   <stop stop-color="#f13d3d" offset="1"/>
  </linearGradient>
 </defs>
 <g transform="translate(-167 -1450)">
  <path transform="translate(169.5 1452.5)" d="m31.969-2.5c-0.96628 0.10276-1.8389 0.82136-2.125 1.75-0.99385 3.1469-3.5394 7.4043-3.75 12.25-4.8581 1.3692-9.3224 3.628-13.219 6.625-1.0424-0.2429-2.0749-0.49985-3.3125-0.78125-1.173-0.31015-2.5243 0.37526-2.967 1.5049-0.4427 1.1296 0.083134 2.5507 1.1545 3.1201 0.24053 0.1368 0.4252 0.244 0.65625 0.375-6.6705 7.0415-10.906 16.428-10.906 26.875 0 21.648 17.602 39.25 39.25 39.25s39.25-17.602 39.25-39.25c0-13.294-6.6775-24.994-16.812-32.094 2.3401-2.9254 3.8899-6.5102 4.0625-10.594 0.054719-1.0618-0.64772-2.1192-1.6477-2.4803-1-0.36112-2.2159 0.0034957-2.8523 0.8553-2.0295 2.6485-4.7344 5.4122-8.3125 7.5625-1.2537-0.4683-2.5307-0.87695-3.8438-1.2188 0.88515-1.0634 0.63816-2.8695-0.5-3.6562 0 0-0.54592-0.38645-1.2188-0.78125-0.33642-0.1974-0.70474-0.3756-1.125-0.5625-0.42027-0.1869-0.80211-0.4375-1.75-0.4375-1.5186 0-2.4864 0.62145-3.1875 1.0938-0.70107 0.4722-1.1875 0.96875-1.1875 0.96875-0.55372 0.53255-0.83963 1.3307-0.75 2.0938-0.0404-1e-4 -0.0848 0-0.125 0-0.30183 0-0.57869 0.02325-0.875 0.03125-0.79622-3.1288-0.89467-6.6964-1.1562-10.188-0.093331-1.333-1.4207-2.4492-2.75-2.3125z" color="#000000" style="block-progression:tb;text-indent:0;text-transform:none"/>
  <path transform="matrix(0,-1,1,0,144.5,1708)" d="m243 61.75c0 20.296-16.454 36.75-36.75 36.75s-36.75-16.454-36.75-36.75 16.454-36.75 36.75-36.75 36.75 16.454 36.75 36.75z" fill="url(#d)"/>
  <g transform="matrix(1.8403 0 0 1.8403 -173 -1239.2)">
   <path transform="translate(0,1440)" d="m208.81 35.375c6.5963 3.8234 8.6856 6.8185 11.938 11.25-4.204-3.0241-7.4256-7.6346-14.312-10.062-5.8232 1.7-8.5965 5.8307-11.438 9.1875 2.0557-3.8741 4.789-8.2376 8.9375-10.062-5.8816 1.8701-6.9656 1.0859-12.938-2.3125 6.0833 1.3835 8.2917 2.1126 12.875 0-4.4834-3.2159-1.3157-7.3755-0.25-10.75 0.24346 3.2493-0.20866 7.5239 3.4375 10.125 6.3208-0.38252 9.8709-3.7649 12.062-6.625-0.22131 5.2356-4.9605 8.6486-10.312 9.25z" fill="#57b511"/>
   <path transform="translate(0,1440)" d="m204.31 33.625c1.3206-1.8306 3.6769-3.316 3.1875-5.75 0 0 0.74295-0.7292 1.428-0.7292 0.39775 0 1.447 0.7292 1.447 0.7292-2.4311 2.4781-1.9321 5.1815-2.375 7.8125z" fill="url(#c)"/>
  </g>
 </g>
</svg>
